<svg version="1.0" xmlns="http://www.w3.org/2000/svg"
 width="512.000000pt" height="512.000000pt" viewBox="0 0 512.000000 512.000000"
 preserveAspectRatio="xMidYMid meet">

<g transform="translate(0.000000,512.000000) scale(0.100000,-0.100000)"
fill="#000000" stroke="none">
<path d="M2315 5109 c-798 -81 -1501 -518 -1927 -1196 -487 -774 -516 -1777
-75 -2578 199 -363 487 -676 837 -910 242 -162 602 -313 880 -369 214 -43 295
-51 530 -51 236 0 333 10 532 51 879 183 1616 843 1897 1699 93 282 126 493
126 805 0 301 -32 513 -116 775 -124 390 -330 728 -622 1024 -398 403 -895
653 -1462 737 -122 18 -477 26 -600 13z m525 -220 c326 -38 675 -161 958 -337
288 -179 570 -460 752 -752 68 -108 179 -338 220 -455 113 -323 159 -726 120
-1050 -32 -269 -111 -533 -231 -775 -132 -264 -265 -447 -473 -648 -368 -356
-816 -570 -1346 -643 -217 -30 -548 -13 -790 41 -514 115 -979 403 -1316 815
-195 238 -366 577 -443 878 -144 561 -88 1117 164 1632 271 553 758 984 1340
1183 335 115 692 153 1045 111z"/>
<path d="M2338 3700 c-405 -85 -719 -353 -863 -736 -88 -233 -92 -543 -11
-780 127 -375 425 -645 826 -749 128 -33 374 -45 511 -26 267 40 521 174 665
352 181 224 254 460 254 821 l0 108 -565 0 -565 0 0 -225 0 -225 301 0 c342 0
315 9 256 -89 -68 -114 -197 -203 -343 -237 -83 -19 -262 -21 -354 -4 -236 43
-421 196 -498 412 -34 96 -43 295 -18 403 43 185 167 345 326 423 118 58 184
73 315 73 215 0 405 -79 510 -213 17 -20 34 -37 39 -38 12 0 415 230 422 242
15 24 -134 192 -244 275 -139 105 -299 176 -481 213 -131 27 -357 27 -483 0z"/>
</g>
</svg>