<svg version="1.0" xmlns="http://www.w3.org/2000/svg"
 width="512.000000pt" height="512.000000pt" viewBox="0 0 512.000000 512.000000"
 preserveAspectRatio="xMidYMid meet">

<g transform="translate(0.000000,512.000000) scale(0.100000,-0.100000)"
fill="#000000" stroke="none">
<path d="M1 3918 c1 -736 5 -1168 10 -1113 115 1212 1092 2189 2304 2304 55 5
-377 9 -1112 10 l-1203 1 1 -1202z"/>
<path d="M2750 5113 c475 -45 853 -175 1223 -420 575 -381 980 -990 1102
-1662 14 -75 29 -176 34 -226 5 -55 9 377 10 1113 l1 1202 -1202 -2 c-662 0
-1187 -3 -1168 -5z"/>
<path d="M2385 4900 c-1075 -79 -1957 -885 -2140 -1955 -55 -320 -40 -649 46
-982 214 -838 905 -1502 1759 -1693 242 -54 573 -71 790 -41 624 86 1163 385
1543 856 226 281 399 643 471 990 87 421 58 866 -84 1270 -41 117 -152 347
-220 455 -138 220 -375 480 -572 628 -464 347 -1028 514 -1593 472z m436
-1200 c182 -37 342 -108 481 -213 110 -83 259 -251 244 -275 -7 -12 -410 -242
-422 -242 -5 1 -22 18 -39 38 -105 134 -295 213 -510 213 -131 0 -197 -15
-315 -73 -159 -78 -283 -238 -326 -423 -25 -108 -16 -307 18 -403 77 -216 262
-369 498 -412 92 -17 271 -15 354 4 146 34 275 123 343 237 59 98 86 89 -256
89 l-301 0 0 225 0 225 565 0 565 0 0 -108 c0 -361 -73 -597 -254 -821 -144
-178 -398 -312 -665 -352 -137 -19 -383 -7 -511 26 -401 104 -699 374 -826
749 -81 237 -77 547 11 780 125 332 391 590 723 700 177 59 436 74 623 36z"/>
<path d="M1 1203 l-1 -1203 1203 1 c735 1 1167 5 1112 10 -138 13 -350 55
-479 94 -1007 305 -1726 1175 -1825 2210 -5 56 -9 -368 -10 -1112z"/>
<path d="M5110 2354 c0 -129 -54 -393 -122 -601 -204 -622 -655 -1152 -1248
-1465 -295 -155 -610 -245 -990 -281 -19 -2 506 -5 1168 -5 l1202 -2 0 1200
c0 660 -2 1200 -5 1200 -3 0 -5 -21 -5 -46z"/>
</g>
</svg>
